 <svg version="1.0" xmlns="http://www.w3.org/2000/svg" width="700.000000pt" height="420.000000pt" viewBox="0 0 700.000000 420.000000" preserveAspectRatio="xMidYMid meet">
<metadata>
Created by potrace 1.12, written by Peter Selinger 2001-2015
</metadata>
<g transform="translate(0.000000,420.000000) scale(0.100000,-0.100000)" fill="#000000" stroke="none">
<path d="M1530 4121 c-72 -22 -127 -71 -159 -141 -14 -31 -17 -139 -21 -935
l-5 -900 -495 -5 c-482 -5 -496 -6 -542 -27 -66 -30 -143 -105 -175 -172 l-28
-56 0 -780 c0 -778 0 -780 22 -827 30 -66 97 -135 168 -171 l60 -32 3155 0
3155 0 62 29 c73 33 143 103 176 173 l22 48 0 780 0 780 -28 56 c-32 67 -109
142 -175 172 l-47 22 -2277 3 -2277 2 -3 903 -3 902 -30 54 c-62 111 -116 131
-354 130 -97 0 -187 -4 -201 -8z m379 -166 c16 -8 31 -22 35 -30 3 -9 6 -415
6 -901 l0 -884 -217 2 -218 3 -2 875 c-3 937 -4 911 47 937 37 19 312 18 349
-2z m4746 -1994 c48 -22 79 -54 100 -103 13 -33 15 -130 15 -753 0 -623 -2
-720 -15 -753 -21 -49 -52 -81 -100 -103 -39 -18 -147 -19 -3138 -19 -2774 0
-3102 2 -3135 15 -49 21 -81 52 -103 100 -17 38 -19 81 -19 758 0 625 2 722
15 755 21 49 52 81 100 103 39 18 147 19 3140 19 2993 0 3101 -1 3140 -19z"></path>
<path d="M5630 1140 l0 -330 160 0 160 0 0 330 0 330 -160 0 -160 0 0 -330z
m198 -2 l-3 -203 -35 0 -35 0 -3 203 -2 202 40 0 40 0 -2 -202z"></path>
<path d="M3430 1125 l0 -325 160 0 160 0 0 325 0 325 -160 0 -160 0 0 -325z
m198 3 l-3 -203 -35 0 -35 0 -3 203 -2 202 40 0 40 0 -2 -202z"></path>
<path d="M4170 1125 l0 -325 165 0 165 0 0 325 0 325 -165 0 -165 0 0 -325z
m200 0 l0 -205 -35 0 -35 0 0 205 0 205 35 0 35 0 0 -205z"></path>
<path d="M4910 1125 l0 -325 160 0 160 0 0 325 0 325 -160 0 -160 0 0 -325z
m198 3 l-3 -203 -35 0 -35 0 -3 203 -2 202 40 0 40 0 -2 -202z"></path>
</g>
</svg>