 <svg version="1.0" xmlns="http://www.w3.org/2000/svg" width="700.000000pt" height="229.000000pt" viewBox="0 0 700.000000 229.000000" preserveAspectRatio="xMidYMid meet">
<metadata>
Created by potrace 1.12, written by Peter Selinger 2001-2015
</metadata>
<g transform="translate(0.000000,229.000000) scale(0.100000,-0.100000)" fill="#000000" stroke="none">
<path d="M3120 1840 c-74 -4 -175 -12 -225 -19 -180 -24 -311 -43 -360 -52
-163 -31 -217 -42 -275 -55 -213 -48 -461 -123 -662 -200 -93 -35 -124 -47
-143 -54 -45 -18 -413 -201 -457 -227 -172 -102 -375 -242 -473 -327 l-40 -34
21 -24 c12 -12 140 -156 285 -318 144 -162 266 -294 269 -293 4 1 51 35 106
76 284 211 649 377 1079 490 122 32 142 36 245 57 189 37 307 55 540 81 184
21 709 24 910 5 193 -19 412 -48 535 -72 144 -28 159 -31 210 -44 317 -80 589
-177 808 -287 106 -53 280 -158 353 -214 37 -27 71 -49 78 -47 6 2 146 139
311 306 284 288 299 304 280 318 -11 7 -45 34 -75 58 -152 121 -433 294 -625
386 -194 92 -250 117 -395 170 -63 23 -124 46 -135 51 -17 7 -122 39 -275 84
-216 65 -598 136 -910 170 -166 19 -761 28 -980 15z"></path>
</g>
</svg>