 <svg version="1.0" xmlns="http://www.w3.org/2000/svg" width="700.000000pt" height="581.000000pt" viewBox="0 0 700.000000 581.000000" preserveAspectRatio="xMidYMid meet">
<metadata>
Created by potrace 1.12, written by Peter Selinger 2001-2015
</metadata>
<g transform="translate(0.000000,581.000000) scale(0.100000,-0.100000)" fill="#000000" stroke="none">
<path d="M1438 5695 c-352 -48 -663 -157 -906 -319 -99 -64 -227 -170 -227
-186 0 -5 32 -44 71 -88 l70 -79 55 49 c208 186 520 322 879 383 131 22 466
31 613 16 410 -43 773 -187 1012 -405 l73 -66 76 83 76 82 -57 54 c-270 255
-687 430 -1145 480 -131 15 -470 12 -590 -4z"></path>
<path d="M1550 5199 c-116 -13 -311 -56 -408 -90 -177 -62 -353 -160 -462
-257 l-44 -39 62 -70 c93 -105 81 -102 159 -38 87 71 276 165 413 204 501 145
1084 55 1418 -217 l44 -35 79 79 80 79 -43 38 c-295 258 -825 400 -1298 346z"></path>
<path d="M1615 4699 c-123 -10 -305 -55 -414 -102 -75 -33 -241 -134 -241
-147 0 -3 34 -41 74 -85 l73 -80 39 26 c107 72 221 115 379 144 139 26 416 17
547 -18 109 -30 191 -64 261 -109 l48 -31 75 74 c41 40 74 78 74 84 0 12 -103
81 -175 118 -74 37 -187 75 -286 97 -80 18 -286 42 -334 39 -11 -1 -65 -6
-120 -10z"></path>
<path d="M1560 4144 c-42 -18 -95 -67 -118 -109 -15 -27 -17 -114 -22 -913
l-5 -883 -430 0 c-457 1 -528 -4 -600 -40 -57 -29 -130 -105 -158 -167 -22
-47 -22 -48 -22 -797 l0 -750 28 -57 c36 -73 119 -150 189 -175 51 -17 170
-18 3088 -18 2918 0 3037 1 3088 18 70 25 153 102 189 175 l28 57 0 750 0 750
-28 57 c-34 69 -115 145 -183 173 -48 20 -75 20 -2249 23 l-2200 2 -5 883 -5
882 -23 37 c-32 51 -85 95 -129 107 -61 17 -391 13 -433 -5z m411 -163 l29
-29 0 -856 0 -856 -215 0 -215 0 0 860 0 861 25 24 c24 24 27 25 185 25 l162
0 29 -29z m4610 -1930 c89 -56 84 -8 84 -822 l0 -715 -28 -42 c-15 -23 -45
-51 -67 -62 -39 -20 -49 -20 -3060 -20 -2990 0 -3021 0 -3060 20 -42 21 -71
57 -88 109 -9 24 -12 228 -12 718 0 681 0 685 22 735 16 38 33 58 67 79 l45
29 3026 0 3026 0 45 -29z"></path>
<path d="M5560 1265 l0 -315 155 0 155 0 0 315 0 315 -155 0 -155 0 0 -315z
m190 5 l0 -200 -40 0 -40 0 0 193 c0 107 3 197 7 200 3 4 21 7 40 7 l33 0 0
-200z"></path>
<path d="M3430 1255 l0 -315 154 0 155 0 -2 313 -2 312 -152 3 -153 3 0 -316z
m190 0 l0 -205 -40 0 -40 0 0 198 c0 109 3 202 7 205 3 4 21 7 40 7 l33 0 0
-205z"></path>
<path d="M4150 1255 l0 -315 155 0 155 0 0 315 0 315 -155 0 -155 0 0 -315z
m195 0 l0 -200 -37 -3 -38 -3 0 206 0 206 38 -3 37 -3 0 -200z"></path>
<path d="M4860 1255 l0 -315 155 0 155 0 0 315 0 315 -155 0 -155 0 0 -315z
m198 -2 l2 -203 -40 0 -40 0 0 206 0 205 38 -3 37 -3 3 -202z"></path>
</g>
</svg>