 <svg version="1.0" xmlns="http://www.w3.org/2000/svg" width="700.000000pt" height="171.000000pt" viewBox="0 0 700.000000 171.000000" preserveAspectRatio="xMidYMid meet">
<metadata>
Created by potrace 1.12, written by Peter Selinger 2001-2015
</metadata>
<g transform="translate(0.000000,171.000000) scale(0.100000,-0.100000)" fill="#000000" stroke="none">
<path d="M3105 1520 c-243 -17 -520 -56 -710 -99 -22 -5 -65 -14 -95 -21 -78
-17 -120 -27 -160 -39 -19 -5 -51 -14 -70 -19 -400 -110 -797 -287 -1140 -510
-146 -95 -430 -327 -430 -352 0 -9 380 -434 392 -439 5 -1 37 23 71 56 34 32
94 84 132 114 73 58 250 179 261 179 3 0 18 9 34 20 98 70 492 241 710 309
278 86 562 141 945 183 144 15 708 16 845 0 233 -27 290 -35 415 -57 676 -121
1237 -367 1636 -717 l77 -67 206 210 c113 115 206 214 206 219 0 23 -240 217
-405 327 -445 298 -979 509 -1570 622 -138 26 -216 38 -315 50 -47 6 -125 15
-175 21 -113 14 -713 21 -860 10z"></path>
</g>
</svg>