 <svg version="1.0" xmlns="http://www.w3.org/2000/svg" width="700.000000pt" height="171.000000pt" viewBox="0 0 700.000000 171.000000" preserveAspectRatio="xMidYMid meet">
<metadata>
Created by potrace 1.12, written by Peter Selinger 2001-2015
</metadata>
<g transform="translate(0.000000,171.000000) scale(0.100000,-0.100000)" fill="#000000" stroke="none">
<path d="M3095 1574 c-666 -48 -1286 -209 -1810 -471 -247 -124 -380 -206
-575 -354 -108 -82 -305 -256 -305 -270 0 -10 308 -349 318 -349 5 0 49 38 97
84 395 375 1046 673 1755 802 292 53 558 76 885 77 334 0 605 -23 905 -77 733
-133 1375 -431 1781 -828 l111 -108 164 165 c90 92 165 170 167 174 5 14 -241
244 -338 317 -277 207 -497 333 -824 473 -680 290 -1531 423 -2331 365z"></path>
</g>
</svg>